# xmcd CD database file
#
# Track frame offsets:
#	150
#	34627
#	54500
#	82820
#	106867
#	132953
#	151662
#	174451
#	200741
#	221834
#	242451
#	262242
#	285325
#
# Disc length: 4182 seconds
#
# Revision: 0
# Processed by: cddbd v1.5.1PL2 Copyright (c) Steve Scherf et al.
# Submitted via: CDex 1.50
#
DISCID=ac10540d
DTITLE=Buddy Rich - Arog, Emaryc and Verve Small Group Sess Disc 5
DYEAR=2006
DGENRE=Jazz
TTITLE0=Astronaut
TTITLE1=Straight No Chaser
TTITLE2=A Night In Tunisia
TTITLE3=Miss Bessie's Cookin'
TTITLE4=Big Leg Mary
TTITLE5=A Swingin' Serenade
TTITLE6=Brainwashed
TTITLE7=Lulu's Back In Town
TTITLE8=Will You Still Be Mine
TTITLE9=Fascinatin' Rhythm
TTITLE10=Makin' Whoopee
TTITLE11=Misty
TTITLE12=Cheek To Cheek
EXTD=YEAR: 2006
EXTT0=
EXTT1=
EXTT2=
EXTT3=
EXTT4=
EXTT5=
EXTT6=
EXTT7=
EXTT8=
EXTT9=
EXTT10=
EXTT11=
EXTT12=
PLAYORDER=
